<svg width="35" height="30" viewBox="0 0 35 30" fill="none" xmlns="http://www.w3.org/2000/svg">
<path d="M32.875 0.333328C33.2934 0.333387 33.6973 0.498248 34.01 0.796639C34.3227 1.09503 34.5224 1.5062 34.5714 1.95216L34.5834 2.16666V14.0833C34.5835 15.7243 33.9978 17.3029 32.9467 18.4947C31.8956 19.6865 30.459 20.4008 28.9322 20.4908L28.6042 20.5H6.25065L11.8745 26.5372C12.1686 26.8528 12.3453 27.2729 12.3714 27.7184C12.3975 28.164 12.2712 28.6044 12.0163 28.9572L11.8745 29.1295C11.5803 29.4452 11.1889 29.6348 10.7738 29.6628C10.3586 29.6908 9.94817 29.5553 9.61948 29.2817L9.4589 29.1295L0.917229 19.9628C0.857387 19.8988 0.802003 19.8302 0.751521 19.7575L0.630229 19.5558L0.537979 19.3468L0.478187 19.1543L0.435479 18.9398L0.42352 18.8298L0.416687 18.6667L0.421812 18.5292L0.450854 18.2982L0.502104 18.0947L0.577271 17.8912L0.666104 17.7115L0.775437 17.5428L0.917229 17.3705L9.4589 8.20383C9.76632 7.87502 10.1788 7.68413 10.6127 7.66991C11.0465 7.65569 11.4691 7.81922 11.7947 8.12728C12.1202 8.43535 12.3243 8.86484 12.3655 9.32853C12.4066 9.79222 12.2818 10.2553 12.0163 10.6238L11.8745 10.7962L6.25065 16.8333H28.6042C29.2409 16.8333 29.8549 16.5789 30.3264 16.1197C30.7979 15.6605 31.0932 15.0293 31.1547 14.3492L31.1667 14.0833V2.16666C31.1667 1.68043 31.3467 1.21412 31.667 0.8703C31.9874 0.526483 32.4219 0.333328 32.875 0.333328Z" fill="white"/>
</svg>
